<?xml version="1.0" encoding="UTF-8" standalone="no"?>
<!-- Created with Inkscape (http://www.inkscape.org/) -->

<svg
   xmlns:dc="http://purl.org/dc/elements/1.1/"
   xmlns:cc="http://creativecommons.org/ns#"
   xmlns:rdf="http://www.w3.org/1999/02/22-rdf-syntax-ns#"
   xmlns:svg="http://www.w3.org/2000/svg"
   xmlns="http://www.w3.org/2000/svg"
   xmlns:sodipodi="http://sodipodi.sourceforge.net/DTD/sodipodi-0.dtd"
   xmlns:inkscape="http://www.inkscape.org/namespaces/inkscape"
   version="1.1"
   id="svg2"
   width="528"
   height="211"
   viewBox="0 0 528 211"
   sodipodi:docname="logo.svg"
   inkscape:version="0.92.5 (2060ec1f9f, 2020-04-08)">
  <metadata
     id="metadata8">
    <rdf:RDF>
      <cc:Work
         rdf:about="">
        <dc:format>image/svg+xml</dc:format>
        <dc:type
           rdf:resource="http://purl.org/dc/dcmitype/StillImage" />
        <dc:title></dc:title>
      </cc:Work>
    </rdf:RDF>
  </metadata>
  <defs
     id="defs6" />
  <sodipodi:namedview
     pagecolor="#ffffff"
     bordercolor="#666666"
     borderopacity="1"
     objecttolerance="10"
     gridtolerance="10"
     guidetolerance="10"
     inkscape:pageopacity="0"
     inkscape:pageshadow="2"
     inkscape:window-width="1366"
     inkscape:window-height="744"
     id="namedview4"
     showgrid="false"
     inkscape:zoom="1.521351"
     inkscape:cx="212.18904"
     inkscape:cy="117.97396"
     inkscape:window-x="0"
     inkscape:window-y="0"
     inkscape:window-maximized="1"
     inkscape:current-layer="svg2" />
  <path
     style="fill:#000000"
     d="m 281.45675,204.1902 c -4.79395,-0.78528 -8.8844,-2.62679 -12.0936,-5.4445 -6.41108,-5.629 -6.67619,-6.82408 -7.15327,-32.2457 -0.25019,-13.33185 -0.85684,-23.52544 -1.4432,-24.25 -1.6989,-2.09934 -4.52222,-1.40206 -6.69859,1.65437 C 252.19763,146.5312 252,148.24652 252,161.85468 c 0,13.2623 0.20647,15.16149 1.74167,16.02063 0.95792,0.53608 1.46561,1.25074 1.1282,1.58815 C 254.01666,180.31667 237,180.75169 237,179.92029 c 0,-0.37147 0.73997,-1.28952 1.64438,-2.04011 1.45506,-1.2076 1.57755,-3.42072 1.06398,-19.22301 -0.48549,-14.93802 -0.86149,-18.1689 -2.29937,-19.75773 C 235.73371,137.04827 235.89728,137 243.84501,137 H 252 v 2.72251 c 0,2.67656 0.0247,2.6872 1.46539,0.63036 2.23641,-3.19292 8.182,-5.6416 11.9719,-4.93061 7.92387,1.48653 9.2689,6.56699 9.49483,35.86388 0.0797,10.33238 0.5298,19.78238 1.00027,21 2.07355,5.36649 8.04595,8.71386 15.54732,8.71386 4.62424,0 6.04293,-0.43173 8.06574,-2.45455 3.00166,-3.00165 3.22281,-6.53178 0.45455,-7.2557 -2.58877,-0.67698 -2.57712,-3.91052 0.0191,-5.29998 3.18883,-1.70661 7.4071,0.77158 7.77957,4.57043 0.61883,6.31146 -7.76091,12.43288 -18.34193,13.39884 -3.32379,0.30343 -6.92379,0.40745 -8,0.23116 z m 192.53678,-4.12454 c -4.92787,-1.49899 -8.93182,-4.1182 -11.55715,-7.56018 -3.38946,-4.44382 -4.33302,-11.97417 -4.39247,-35.05548 -0.0449,-17.44365 -0.46472,-19.45 -4.0696,-19.45 -0.89412,0 -2.60412,1.0415 -3.8,2.31445 C 448.13989,142.48 448,143.60131 448,157.74302 c 0,12.10144 0.29899,15.41312 1.5,16.61412 0.825,0.825 1.5,1.75715 1.5,2.07143 0,0.31429 -4.11974,0.57143 -9.15499,0.57143 -9.08564,0 -9.1413,-0.0151 -7.34856,-1.99608 1.64648,-1.81933 1.75612,-3.55293 1.23827,-19.57923 -0.45441,-14.06303 -0.88513,-17.93341 -2.15144,-19.33266 C 432.71248,135.1298 432,134.04045 432,133.67126 432,133.30207 435.375,133 439.5,133 c 7.33333,0 7.5,0.0556 7.5,2.5 0,3.16054 0.72201,3.14051 4.11927,-0.11427 3.88709,-3.72406 10.41214,-4.34505 14.20541,-1.35193 1.55357,1.22587 3.20531,3.22998 3.67052,4.45358 0.46522,1.2236 1.14625,12.52701 1.51342,25.11868 0.76069,26.08713 1.33263,28.38586 7.99138,32.11868 2.2,1.2333 5.73199,2.24976 7.84887,2.25881 8.599,0.0367 14.6291,-6.15372 9.80188,-10.06256 -2.84958,-2.30745 -2.72695,-4.73827 0.27708,-5.49223 5.39317,-1.3536 8.6206,2.25784 7.17281,8.02627 -0.73336,2.92194 -6.12535,7.25422 -11.34861,9.11822 -4.05915,1.44856 -14.21479,1.72245 -18.2585,0.49241 z M 27.674541,188.50088 c -1.554003,-0.63949 -4.144299,-2.70129 -5.756213,-4.58179 -2.893795,-3.37597 -2.902713,-3.42348 -0.707218,-3.76712 1.222945,-0.19142 2.396657,0.17133 2.608248,0.80611 0.49572,1.48715 4.409774,5.14612 4.938889,4.61701 0.222086,-0.22209 -0.128962,-1.39926 -0.780108,-2.61594 -2.578686,-4.81832 4.020505,-10.38908 7.813639,-6.59594 1.267284,1.26728 1.358222,1.88679 0.415365,2.82965 -1.644388,1.64438 -1.522798,4.74878 0.212069,5.41451 0.780566,0.29953 2.468066,-0.13655 3.75,-0.96907 1.562549,-1.01475 4.243063,-1.42293 8.132506,-1.23836 8.246753,0.39133 8.842711,-1.1261 4.392731,-11.18478 -8.30599,-18.77475 -9.068693,-20.10341 -11.444449,-19.93677 -1.2375,0.0868 -2.25,0.68653 -2.25,1.33273 0,0.6462 -0.711804,1.44805 -1.581787,1.78189 C 35.13436,155.26941 35,155.19795 35,153.10699 c 0,-1.71138 2.452254,-3.63502 4.18906,-3.28606 2.707254,0.54394 0.584526,-10.10676 -2.379407,-11.93857 -0.929583,-0.57451 -4.585626,0.76385 -18.482961,6.76601 -0.645319,0.27871 -1.668393,-0.41833 -2.273497,-1.54897 -1.014706,-1.896 -0.399076,-2.40785 7.923308,-6.5876 C 32.655476,132.15296 34.162138,130.83627 32,129.5 c -2.258652,-1.39592 -0.812798,-4.48465 3.444164,-7.35764 l 4.444165,-2.99933 -0.1549,3.88442 c -0.08519,2.13643 0.116292,4.1556 0.44775,4.48706 1.042713,1.04272 8.020115,-2.40948 7.579885,-3.75028 -0.228298,-0.69533 -1.870048,-1.40726 -3.648333,-1.58208 -2.398934,-0.23584 -3.150979,-0.75192 -2.914437,-2 C 41.573841,118.20062 47,117.18875 47,119.10024 c 0,0.6782 0.304116,0.92898 0.675813,0.55728 0.371697,-0.3717 1.675777,0.26361 2.897956,1.41178 2.07393,1.94836 2.419124,1.98574 5.175432,0.56039 2.223812,-1.14997 3.237036,-1.24345 4.102043,-0.37845 1.759813,1.75982 1.410203,2.5622 -1.851244,4.24876 -1.65,0.85325 -3,2.20976 -3,3.01448 0,0.90775 -0.857879,1.39212 -2.260093,1.27607 C 50.025914,129.56593 44,132.92918 44,134.66855 c 0,2.47074 2.38702,6.39691 3.605007,5.92953 2.015311,-0.77335 3.880957,2.11144 2.467185,3.81493 -0.932494,1.12359 0.26834,4.28961 5.862596,15.45681 3.884834,7.75488 7.933564,14.52454 9.041222,15.11734 1.503283,0.80453 2.710281,0.70931 4.816828,-0.38003 C 74.182936,172.33692 81,164.39914 81,161.55753 c 0,-2.53344 -2.543903,-4.63148 -4.682296,-3.86164 -1.933065,0.69592 -3.698658,-3.53194 -2.219342,-5.31441 C 78.72666,146.80472 86,150.47502 86,158.38733 86,163.07086 80.020672,172.80387 73.437688,178.83598 69.89696,182.08042 67,185.50535 67,186.44693 c 0,1.3524 -0.584687,1.58356 -2.783715,1.10057 -1.567281,-0.34423 -4.726956,0.0742 -7.230673,0.95758 -5.25946,1.85564 -24.798325,1.85285 -29.311071,-0.004 z M 46,185.39301 C 46,185.17686 45.325,185 44.5,185 c -0.825,0 -1.5,0.43588 -1.5,0.96862 0,0.53273 0.675,0.70959 1.5,0.39301 0.825,-0.31659 1.5,-0.75246 1.5,-0.96862 z M 35.604167,126.27083 c -1.016516,-1.01651 -1.855248,0.51389 -1.021218,1.86338 0.630035,1.01942 0.865577,1.02021 1.204302,0.004 0.231595,-0.69479 0.149207,-1.53512 -0.183084,-1.86742 z M 69.25,187.33772 C 68.5625,187.06031 68,186.16284 68,185.34334 c 0,-2.07178 3.393445,-1.25441 3.811841,0.91814 0.337274,1.75133 -0.263412,2.00368 -2.561841,1.07624 z M 146,180.83028 c 5.9036,-2.44259 5.52584,-0.22735 5.19263,-30.4508 -0.34907,-31.66262 -0.0663,-30.63815 -8.81864,-31.95065 -9.44549,-1.41644 -20.32479,3.5699 -24.1553,11.07117 -3.64214,7.13238 -1.78794,18.53434 3.64296,22.40148 4.09711,2.91741 9.6372,3.65691 12.64276,1.68759 2.64524,-1.73323 3.31509,-5.36957 1.35095,-7.33371 -0.85953,-0.85953 -0.50387,-1.30547 1.42782,-1.7903 3.25484,-0.81691 6.35227,0.14255 7.14711,2.21388 2.67544,6.97209 -12.47981,12.86528 -22.87535,8.89519 -4.88359,-1.86506 -10.15795,-7.14423 -11.17122,-11.18139 -1.21626,-4.84597 0.34294,-13.3908 3.19421,-17.50519 6.19607,-8.94093 13.91224,-10.78117 41.42207,-9.87883 10.725,0.35179 18.29464,0.71874 16.82143,0.81545 -5.87925,0.38593 -5.93772,0.71262 -5.61542,31.37304 0.27172,25.84756 0.43394,28.06862 2.14119,29.3159 2.15263,1.57266 4.22768,1.03202 5.14471,-1.34043 0.35561,-0.91997 0.3259,-9.71918 -0.066,-19.55378 -0.64737,-16.24493 -0.88247,-17.92553 -2.56924,-18.36663 -3.98453,-1.04198 -1.48788,-1.78432 6.64334,-1.97528 8.49681,-0.19955 8.5,-0.19867 8.5,2.35059 v 2.55021 l 3.07673,-2.5889 c 4.04614,-3.4046 8.32993,-3.42408 10.54207,-0.0479 1.34084,2.04638 1.44433,3.02507 0.5317,5.02807 -1.59087,3.49158 -3.70497,3.9834 -7.77593,1.80896 -3.46034,-1.84828 -3.53897,-1.84674 -4.9701,0.0971 -1.15155,1.56411 -1.39695,5.09567 -1.1793,16.97177 0.26456,14.43621 0.3592,15.0387 2.53227,16.12084 1.84924,0.92087 0.0578,1.24242 -9.907,1.77822 -18.85007,1.01356 -35.89962,0.74594 -32.85044,-0.51564 z m 67.0131,0.42978 c -2.63691,-0.48907 -7.64371,-3.66275 -9.81796,-6.22334 -5.11853,-6.02805 -6.73566,-18.00873 -3.5454,-26.26648 4.6516,-12.04033 17.52991,-16.23985 27.75759,-9.05156 9.97745,7.01241 12.30339,22.46873 5.04299,33.51157 -3.71855,5.65579 -12.55502,9.30627 -19.43722,8.02981 z m 7.53235,-4.71461 c 1.78284,-1.78283 2.48798,-3.63004 2.57669,-6.75 0.0672,-2.3625 0.21972,-6.32045 0.33897,-8.79545 0.11926,-2.475 -0.1145,-7.5913 -0.51946,-11.36955 -0.85836,-8.00836 -3.16752,-11.29254 -7.22408,-10.27441 -3.53178,0.88642 -4.98116,5.32834 -5.03408,15.428 -0.0849,16.21105 0.20169,18.80028 2.38909,21.5811 2.57808,3.2775 4.33334,3.31985 7.47287,0.18031 z M 19.085189,176.75 C 18.61749,175.5125 18.4343,174.16128 18.678102,173.7473 19.489648,172.36925 23,175.03975 23,177.03518 c 0,2.69862 -2.866023,2.48984 -3.914811,-0.28518 z m 300.672421,0.75593 c 1.79169,-0.77868 3.63481,-2.44857 4.09582,-3.71086 1.06853,-2.92571 0.21136,-52.74384 -0.94529,-54.94032 -1.20388,-2.28615 -9.89922,-4.19871 -15.12917,-3.32771 -14.7985,2.46458 -22.80677,16.42881 -16.6399,29.01543 3.10999,6.34751 12.24005,9.40139 16.87639,5.64492 2.23736,-1.81275 2.3708,-2.31492 1.34132,-5.04745 -1.26049,-3.34569 -0.1987,-4.13928 4.42353,-3.30619 5.79605,1.04466 4.39794,7.31517 -2.29073,10.27389 -9.7842,4.32801 -21.74051,1.32171 -26.27909,-6.60764 -1.88078,-3.2859 -2.2334,-5.18015 -1.9752,-10.61052 0.38223,-8.03862 3.54531,-13.50758 9.99232,-17.2767 5.85166,-3.42106 13.49878,-4.28845 32.2107,-3.65356 l 15.93832,0.54078 4.85502,11.5 c 2.67027,6.325 6.16122,14.425 7.75768,18 1.59645,3.575 3.39367,7.81078 3.99382,9.41284 0.62972,1.68101 1.45114,2.5268 1.94236,2 0.46816,-0.50206 4.56636,-9.68784 9.10712,-20.41284 4.54075,-10.725 8.53934,-19.82584 8.88574,-20.2241 C 379.05231,113.47223 402,112.60929 402,113.87032 402,114.49164 400.90714,115 399.57143,115 394.16349,115 394,115.86969 394,144.63717 c 0,16.47953 0.39427,27.23101 1.04305,28.44327 0.57368,1.07193 2.48618,2.58063 4.25,3.35268 2.93061,1.28277 1.87132,1.40421 -12.29305,1.40923 -13.29241,0.005 -15.02428,-0.16674 -12.15985,-1.20383 1.83708,-0.66512 3.80942,-2.04784 4.38296,-3.07271 0.69616,-1.24397 0.82075,-9.85897 0.37479,-25.91633 -0.36741,-13.22911 -0.79311,-24.17802 -0.94601,-24.33092 -0.15289,-0.15289 -5.5146,12.20038 -11.9149,27.45172 C 360.3367,166.02163 354.59821,178.5 353.9848,178.5 c -0.61341,0 -6.50486,-12.58142 -13.0921,-27.95872 -6.58724,-15.3773 -12.24147,-28.2023 -12.56496,-28.5 -0.32348,-0.2977 -0.35435,11.06826 -0.0686,25.2577 0.45914,22.79998 0.72478,26.02578 2.28519,27.75 0.9711,1.07306 2.56934,1.95102 3.55164,1.95102 0.9823,0 2.06411,0.45 2.40403,1 0.39732,0.64288 -3.06356,0.98602 -9.69098,0.96086 -9.77458,-0.0371 -10.14014,-0.11254 -7.05141,-1.45493 z m 88.7238,-0.8995 c -4.26338,-1.85767 -9.24138,-7.89169 -10.17627,-12.33505 -0.43642,-2.07426 -0.726,-6.57926 -0.64349,-10.01112 0.53321,-22.17981 23.75865,-29.95974 32.43096,-10.86355 1.02491,2.25681 1.87335,5.56579 1.88543,7.35329 L 432,154 h -11.5 c -13.03285,0 -12.80539,-0.18737 -9.9491,8.19537 3.38646,9.93872 12.13252,12.37738 18.15485,5.0621 3.2671,-3.96853 4.01795,-1.90928 0.92906,2.548 -4.97783,7.183 -13.78105,10.0133 -21.1534,6.80096 z M 421,146.04705 c 0,-2.72412 -0.52715,-6.10991 -1.17144,-7.52397 -1.21288,-2.66199 -4.84913,-4.24644 -6.87376,-2.99515 -1.89813,1.17311 -3.9548,7.1224 -3.9548,11.43995 V 151 h 6 6 z M 19.666667,172.33333 C 19.3,171.96667 19,170.80867 19,169.76001 c 0,-2.72533 3.415637,-1.83089 3.819551,1.00021 0.307746,2.15704 -1.611407,3.11459 -3.152884,1.57311 z m 1.921729,-5.1903 c -0.869006,-1.40608 0.46772,-4.29099 1.784811,-3.85196 1.480235,0.49341 1.45572,3.93262 -0.03157,4.42838 -0.637098,0.21237 -1.426058,-0.047 -1.753245,-0.57642 z m 3.003933,-4.76302 c -0.385546,-1.00472 0.23847,-2.36983 1.643011,-3.5943 2.261887,-1.9719 2.26506,-1.97168 2.591424,0.17503 0.321192,2.1127 -1.329434,5.03926 -2.84222,5.03926 -0.423811,0 -1.050308,-0.729 -1.392215,-1.61999 z M 30,157.2 c 0,-1.85479 1.786825,-4.2 3.2,-4.2 1.233963,0 0.946141,3.45386 -0.4,4.8 -1.715158,1.71516 -2.8,1.48269 -2.8,-0.6 z m 20.127993,-16.54578 c -1.836621,-2.21299 0.351198,-6.33134 2.441746,-4.59634 1.762786,1.46298 1.780937,2.08028 0.127648,4.34129 -1.159009,1.58504 -1.442267,1.61316 -2.569394,0.25505 z M 52.084336,133.75 c -1.010092,-2.66995 -0.706113,-3.20258 1.372536,-2.40492 1.708725,0.6557 2.147662,4.65492 0.510904,4.65492 -0.567724,0 -1.415272,-1.0125 -1.88344,-2.25 z M 309.99353,95.065659 C 301.16023,92.378694 296.40021,87.085375 294.97134,78.360441 294.44347,75.137199 294.00898,64.1525 294.00579,53.95 293.99982,34.834696 293.63786,33 289.87258,33 c -0.95008,0 -2.66008,1.185686 -3.8,2.634859 C 284.19149,38.026282 284,39.614062 284,52.820407 c 0,13.563231 0.14756,14.707757 2.17431,16.865142 L 288.34863,72 h -9.67432 C 273.35344,72 269,71.742857 269,71.428571 c 0,-0.314285 0.73125,-1.302675 1.62499,-2.196422 1.43309,-1.433089 1.5441,-3.756316 0.93994,-19.672432 -0.53673,-14.139866 -0.99683,-18.221915 -2.12499,-18.853268 -3.36586,-1.883626 -1.12096,-2.778491 6.26789,-2.498513 7.18808,0.27237 7.74556,0.452733 8.2674,2.674792 0.51641,2.198951 0.66831,2.251712 1.96934,0.684063 4.2831,-5.160827 11.52122,-5.909416 16.25363,-1.681004 2.95053,2.636295 3.29157,3.565693 3.94463,10.75 0.39318,4.325317 0.74689,15.191166 0.78602,24.146332 0.0789,18.053178 0.88511,21.525098 5.81328,25.034264 6.12726,4.362991 16.59054,3.657918 19.86436,-1.338567 C 334.34712,85.821281 333.08374,82 330.46482,82 c -1.73836,0 -1.80726,-0.491631 -0.42964,-3.065741 1.33252,-2.489838 6.0973,-2.550341 8.30983,-0.105518 6.15872,6.805307 -5.80776,17.272211 -19.53308,17.085306 -3.47156,-0.04727 -7.43984,-0.429048 -8.8184,-0.848388 z m 167.32279,-5.009038 c -2.62129,-1.190104 -4.80957,-3.109787 -5.85965,-5.140402 -3.95068,-7.639792 3.91853,-16.395623 11.96154,-13.30923 1.82561,0.700551 2.10883,4.465973 0.45993,6.114866 C 482.50364,79.096356 480,78.276584 480,76.452028 c 0,-2.353911 -1.8679,-2.584129 -3.96353,-0.488503 -6.11976,6.119765 3.12423,15.231939 11.11429,10.955793 3.96157,-2.120172 5.80343,-8.495175 5.82728,-20.169318 0.0204,-9.975699 1.018,-13.488559 2.50241,-8.811588 0.82691,2.605361 6.95416,7.881579 10.0573,8.660419 3.26951,0.820595 8.22568,-1.278095 9.0342,-3.825537 0.99864,-3.146433 -1.45485,-6.516291 -7.03871,-9.667627 -12.8467,-7.25023 -16.74036,-14.244589 -12.42181,-22.313879 2.81643,-5.262544 12.07082,-7.284891 19.37347,-4.233652 3.43412,1.43487 3.8789,1.422609 5.62212,-0.154988 C 521.94631,24.738614 522,24.87878 522,31.345012 c 0,7.172558 -1.02422,8.424943 -2.99634,3.663831 C 516.71975,29.494995 506.61803,25.781973 503.2,29.2 c -3.37861,3.378609 -0.58251,7.68047 8.2684,12.721132 7.78269,4.432302 10.73017,8.09005 11.30029,14.023374 0.46218,4.809957 0.30263,5.219471 -3.52465,9.046752 C 515.50884,68.726454 514.84857,69 509.56799,69 c -3.21698,0 -6.99261,-0.685338 -8.73255,-1.585098 -4.3043,-2.225837 -5.16542,-0.850813 -4.93436,7.879065 0.23626,8.926252 -0.91899,11.785786 -5.89022,14.579774 -4.6331,2.603948 -7.27804,2.642052 -12.69454,0.18288 z M 449.77749,83.443296 C 451.96914,81.908206 452,81.553519 452,57.897841 v -23.98875 l -2.48983,-2.489832 c -2.72563,-2.72563 -2.67829,-2.771691 4.48983,-4.368145 6.61219,-1.47264 10,-1.320566 10,0.448886 0,1.897915 1.39953,1.928445 2.94665,0.06428 3.87016,-4.663258 12.58678,-1.922934 16.81091,5.285004 2.29978,3.924273 2.74255,5.969654 3.05661,14.119875 0.3434,8.911637 0.18101,9.888169 -2.49941,15.030842 -3.73345,7.163013 -8.52565,9.852605 -14.41244,8.088882 C 467.75605,69.445841 466,68.487781 466,67.959858 466,67.431936 465.55,67 465,67 c -0.56927,0 -1,2.948337 -1,6.845012 0,6.943583 0.96636,8.962408 5,10.445553 0.825,0.303347 -3.66263,0.587067 -9.97251,0.630488 -10.65687,0.07333 -11.31449,-0.03173 -9.25,-1.477757 z m 23.22304,-19.444287 c 1.55979,-2.914493 1.38285,-26.424735 -0.22418,-29.788342 -1.68466,-3.52607 -5.0944,-4.022376 -7.17979,-1.045059 -2.28958,3.268825 -2.32093,27.35519 -0.0399,30.611886 1.95388,2.789547 6.00494,2.9101 7.44383,0.221515 z M 353.73447,81.853165 C 342.09544,79.292738 334.8158,70.684802 336.34102,61.285983 c 0.82095,-5.058969 3.23939,-8.192274 7.98694,-10.347815 C 354.35926,46.383629 366,50.814512 366,59.187322 c 0,4.269185 -6.2698,6.602364 -8.97686,3.340557 -0.97697,-1.177169 -0.90132,-1.792557 0.37755,-3.071429 1.95413,-1.954123 1.98012,-2.553408 0.2154,-4.966799 -1.60962,-2.201289 -7.75588,-2.448451 -10.2113,-0.410631 -4.58539,3.805532 -5.80701,13.109005 -2.44527,18.622431 6.06891,9.953361 23.55036,8.139627 28.94443,-3.003041 2.43034,-5.020413 2.65952,-9.440238 0.72493,-13.980529 C 372.69432,51.177681 369.54513,48.598009 361.5,44.963325 344.38513,37.231049 342.11458,35.921457 340.06022,32.597444 334.94413,24.319423 337.09467,13.612804 344.9127,8.4390772 350.30448,4.8709656 360.36381,3.9906716 367,6.5062143 373.94368,9.1383154 377.86664,9.5111012 378.59685,7.6082218 380.09063,3.7154871 381,6.7017974 381,15.5 c 0,5.859389 -0.39525,9.5 -1.03138,9.5 -0.56727,0 -1.27095,-0.7875 -1.56374,-1.75 -1.4255,-4.686056 -4.26301,-8.85762 -7.73742,-11.375163 C 361.09073,4.9355723 347,8.2229596 347,17.396487 c 0,5.430392 3.195,8.146671 14.72499,12.518675 12.19346,4.623581 17.23066,8.348093 20.69642,15.302965 3.22971,6.481195 3.52421,16.149141 0.67874,22.281873 -4.77317,10.287419 -18.14267,16.822074 -29.36568,14.353165 z M 67.76564,73.799092 C 53.910353,36.76462 45.297,15.074557 43.820232,13.5 c -1.566475,-1.670206 -3.14916,-1.996178 -9.59801,-1.976822 -9.431601,0.02831 -14.894878,2.51395 -18.931136,8.613148 -3.426718,5.17812 -4.37151,14.873683 -1.912714,19.628472 3.255236,6.294931 11.644079,9.760962 16.277154,6.725254 2.162564,-1.416966 2.487136,-2.223502 2.029551,-5.043271 C 31.24056,38.707546 31.50431,37.974713 33.119154,37.462182 35.637657,36.66284 40,39.456098 40,41.868065 40,45.728102 31.9775,50 24.728463,50 19.547717,50 10.866072,45.970739 8.6021663,42.515581 3.3391223,34.483161 4.9583135,23.058449 12.32172,16.271097 19.549437,9.608821 20.704756,9.4243841 52.25,9.896888 59.8125,10.010164 66,10.498406 66,10.981871 c 0,0.483465 -1.007903,1.022825 -2.239784,1.198578 -1.231882,0.175753 -2.39891,1.153951 -2.593396,2.173773 -0.3207,1.68165 12.1753,36.156053 13.727099,37.8708 0.360868,0.398762 2.628345,-4.551238 5.038837,-11 L 84.315469,29.5 82.066768,23 C 79.61714,15.919212 76.680909,12 73.825686,12 72.821559,12 72,11.55 72,11 c 0,-0.621756 5.389975,-0.984856 14.25,-0.959962 13.206584,0.03711 14.04864,0.149277 11.5,1.531937 -1.5125,0.820545 -2.75,2.341238 -2.75,3.379319 0,1.975598 10.04156,31.513645 11.75251,34.570942 0.77703,1.38848 2.20238,-1.885559 6.71448,-15.423184 6.18885,-18.568386 6.39767,-21.251528 1.78504,-22.936093 -2.25462,-0.823408 -1.3061,-1.013585 5.24797,-1.052208 6.48908,-0.03824 7.69851,0.18293 6.40368,1.171052 -2.70536,2.06453 -4.3422,6.264129 -13.82409,35.468197 C 106.92815,65.696327 103.45237,75 102.52558,75 101.76555,75 100.26779,72.6375 99.197243,69.75 98.126693,66.8625 94.884357,58.072505 91.992051,50.216677 89.099745,42.36085 86.455817,36.199491 86.116656,36.524769 c -0.339161,0.325279 -3.807269,9.002774 -7.706907,19.283323 -6.682678,17.61743 -9.195129,21.864051 -10.644109,17.991 z m 57.69174,-1.662016 c -4.7789,-2.914265 -8.12247,-7.572544 -9.47143,-13.195647 -1.43104,-5.965227 -0.82298,-14.422112 1.33733,-18.599695 C 120.64932,33.909882 127.93551,29 134.15424,29 c 6.23917,0 14.28961,5.179207 17.44775,11.22492 2.02108,3.869017 2.81768,13.546394 1.51221,18.370961 -1.56002,5.765338 -6.45659,12.102512 -10.73138,13.888632 -5.04974,2.109916 -13.16911,1.943246 -16.92544,-0.347437 z M 137.69424,69.58716 140.5,67.17432 V 53.33716 c 0,-15.476781 -1.11261,-19.950842 -5.21757,-20.981122 -1.76424,-0.442797 -3.07778,-0.0053 -4.62341,1.539977 -1.93648,1.936013 -2.1955,3.448177 -2.51293,14.670584 -0.40691,14.385682 0.18615,18.765642 2.90969,21.489178 2.50228,2.502281 3.2447,2.449872 6.63846,-0.468617 z m 32.09712,3.424432 c -13.64994,-4.11469 -18.67379,-26.103341 -8.58836,-37.590009 4.09984,-4.669462 8.1523,-6.64296 13.81638,-6.728407 13.86067,-0.209099 23.57015,15.983694 18.58453,30.993992 -3.43895,10.353709 -14.02226,16.275646 -23.81255,13.324424 z m 9.12641,-3.929362 c 2.46846,-2.468459 3.48691,-10.555586 2.85374,-22.660538 C 181.19638,35.42627 179.58824,32 175.00263,32 c -5.14176,0 -6.2024,3.730642 -5.82493,20.488351 0.27907,12.388963 0.57781,14.589968 2.22729,16.409855 2.37055,2.61546 5.01653,2.680273 7.51278,0.184024 z m 26.37257,2.953261 c -1.76532,-1.076369 -4.23808,-3.887186 -5.49503,-6.246262 C 197.83355,62.107334 197.50925,60.013252 197.50498,51 c -0.004,-8.511244 0.37383,-11.255122 1.99502,-14.486803 3.62038,-7.21687 12.02435,-10.635942 17.21185,-7.002473 1.18627,0.830899 2.35871,1.168399 2.60541,0.75 0.7965,-1.350859 0.71822,-17.721113 -0.0907,-18.96091 -0.43068,-0.660103 -1.89535,-1.6538515 -3.25482,-2.2083309 C 214.09947,8.3278416 215.80401,8.1338648 223,8.2916694 L 232.5,8.5 l 0.26349,29 c 0.25458,28.019412 0.33409,29.058918 2.35146,30.742451 2.28206,1.904421 2.31102,1.88122 -4.61495,3.697454 C 224.57247,73.494311 220,73.302744 220,71.5 c 0,-1.985216 -0.68441,-1.893401 -3.72713,0.5 -3.21093,2.525719 -6.87895,2.537573 -10.98253,0.03549 z m 13.21568,-6.404335 c 1.25186,-1.910583 1.49814,-5.0337 1.27305,-16.144 -0.27834,-13.739367 -0.28624,-13.780506 -3.03997,-15.834543 -2.62121,-1.955195 -2.84888,-1.971544 -4.5,-0.32314 -2.47608,2.47202 -3.12277,25.619854 -0.8666,31.019624 1.80743,4.325774 4.78819,4.861486 7.13352,1.282059 z m 26.99621,5.793441 C 237.75618,67.385695 234.58532,61.425297 234.63658,51 c 0.0296,-6.024107 0.53971,-8.483928 2.59207,-12.5 3.02288,-5.915208 5.00675,-7.864756 10.2196,-10.042826 9.65809,-4.035407 20.62801,4.077094 21.69516,16.044057 L 269.5,48.5 258.25,48.782751 247,49.065502 v 2.902149 c 0,4.070135 1.68272,8.066399 4.75071,11.282349 2.05291,2.151917 3.54213,2.75 6.84749,2.75 3.50343,0 4.67267,-0.533198 6.854,-3.125568 3.09983,-3.683939 4.31338,-3.25558 2.22392,0.784998 -4.02816,7.7896 -14.85528,11.581195 -22.17389,7.765167 z m 12.97754,-26.391861 c 1.0458,-1.692145 -0.68711,-11.067221 -2.44755,-13.241271 -1.24317,-1.535252 -2.36024,-1.925953 -4.19206,-1.466195 -2.95938,0.742757 -4.77069,4.292512 -5.55064,10.878036 L 245.72142,46 h 6.08027 c 3.34415,0 6.34929,-0.435269 6.67808,-0.967264 z M 385,70.027478 C 385,69.597054 385.675,68.684689 386.5,68 387.76885,66.946949 388,62.382098 388,38.377555 388,11.333333 387.90603,9.906029 386,8 384.9,6.9 384,5.775 384,5.5 384,5.225 387.6,5 392,5 h 8 v 13 c 0,7.15 0.27254,13 0.60564,13 0.33311,0 1.92135,-1.107094 3.52944,-2.460209 3.8041,-3.200943 9.45628,-4.28475 12.70991,-2.43713 5.39658,3.064524 5.96492,5.104544 6.46033,23.188936 0.39037,14.24987 0.72827,17.088039 2.23232,18.75 C 427.28598,69.973489 427.17718,70 417.5,70 408.0596,70 407.75237,69.93111 409.34501,68.171259 410.73741,66.632672 411,63.845638 411,50.605518 c 0,-8.935568 -0.4474,-16.572975 -1.03518,-17.671259 -1.50308,-2.808521 -4.41705,-2.373959 -7.33504,1.093877 l -2.54801,3.028137 0.62097,15.221863 c 0.49829,12.214426 0.93475,15.462547 2.20912,16.440061 1.77329,1.36022 2.61895,1.218756 -10.66186,1.783549 -3.9875,0.169577 -7.25,-0.04384 -7.25,-0.474268 z M 428,69 c 0,-0.55 0.64844,-1 1.44098,-1 0.79254,0 1.77203,-0.535637 2.17663,-1.190304 0.80072,-1.295591 0.61007,-34.239814 -0.21417,-37.008544 -0.27816,-0.934366 -1.38273,-1.97719 -2.45459,-2.317387 C 427.87698,27.143568 427,26.428029 427,25.893679 c 0,-0.576718 3.55592,-0.854125 8.75,-0.682612 L 444.5,25.5 l 0.24754,19 c 0.24688,18.948486 1.00639,23.5 3.92144,23.5 0.73206,0 1.33102,0.45 1.33102,1 0,0.606061 -4.33333,1 -11,1 -6.66667,0 -11,-0.393939 -11,-1 z m 5.63486,-53.07258 C 428.66158,12.015437 431.17041,4 437.36814,4 c 6.82298,0 9.88792,6.834851 5.17731,11.545455 -2.99863,2.998631 -5.45043,3.103731 -8.91059,0.381965 z"
     id="path12"
     inkscape:connector-curvature="0" />
</svg>
